<svg xmlns="http://www.w3.org/2000/svg" width="1024" height="1024" viewBox="0 0 1024 1024" version="1.1">
	<path d="M 745.500 106.457 C 724.198 110.529, 693.710 119.150, 673 126.959 C 653.735 134.223, 646.849 137.264, 626 147.715 C 580.473 170.536, 538.641 199.153, 487 242.805 C 481.599 247.370, 460.382 266.957, 449.817 277.131 C 448.314 278.578, 445.378 280.064, 443.292 280.433 C 435.340 281.842, 429.566 285.623, 423.709 293.259 C 420.654 297.242, 414.630 303.692, 410.323 307.594 L 402.493 314.689 396.496 304.652 C 390.060 293.880, 383.375 286, 380.671 286 C 379.432 286, 379.026 285.160, 379.100 282.750 C 379.301 276.198, 380.247 274.731, 385.012 273.578 L 389.471 272.500 389.076 268 C 388.859 265.525, 388.641 261.625, 388.591 259.334 C 388.533 256.694, 387.675 254.052, 386.250 252.124 C 383.559 248.484, 383.483 247.669, 385.671 245.872 C 387.868 244.067, 393 235.968, 393 234.304 C 393 232.288, 391.050 232.731, 384 236.348 L 377.500 239.682 373.918 237.320 C 367.333 232.976, 364.688 232.771, 359.504 236.205 C 350.742 242.009, 348.415 247.270, 351.424 254.473 C 352.814 257.798, 352.765 257.970, 349.417 261.519 C 344.648 266.576, 343.431 269.025, 345.147 270.112 C 347.028 271.304, 348.130 271.218, 353 269.500 C 358.596 267.526, 358.557 267.517, 360.030 271.072 C 361.513 274.653, 360.594 276.904, 353.941 285.974 C 348.743 293.061, 346.567 300.465, 347.319 308.513 C 347.634 311.884, 349.522 322.710, 351.515 332.571 C 356.566 357.567, 357.144 374.744, 353.358 387.349 C 352.924 388.795, 353.205 389.070, 354.651 388.612 C 356.375 388.066, 356.522 388.918, 356.820 401.263 C 357.264 419.572, 354.471 451.065, 352.028 455.299 C 349.322 459.990, 346.410 474.017, 347.945 474.966 C 348.841 475.520, 348.890 477.185, 348.140 481.603 C 347.589 484.846, 346.866 492.900, 346.533 499.500 C 345.970 510.668, 343.919 522.894, 342.122 525.802 C 341.282 527.162, 313.323 534.492, 284.014 541.036 C 241.787 550.464, 189.897 558.533, 149.614 561.935 C 143.077 562.487, 137.620 563.065, 137.487 563.219 C 137.260 563.485, 159.571 606.149, 161.334 608.818 C 161.793 609.513, 162.918 609.850, 163.834 609.567 C 167.646 608.390, 208.718 602.922, 224 601.556 C 261.514 598.203, 305.619 598.603, 336.500 602.576 C 373.671 607.357, 399.371 612.934, 477.358 633.141 C 552.350 652.572, 604.111 661.325, 651 662.506 L 669.500 662.972 656 661.088 C 592.402 652.212, 558.028 642.537, 528.207 625.121 L 520.961 620.889 525.730 617.111 C 538.919 606.663, 554.010 587.343, 566.437 565 C 575.150 549.333, 580.142 538.210, 587.578 517.889 C 599.479 485.367, 613.932 434.779, 611.489 434.198 C 610.790 434.031, 603.081 436.583, 594.359 439.869 C 520.286 467.769, 477.762 483.286, 442.250 495.373 C 419.945 502.965, 422.117 504.055, 424.445 486.436 C 426.955 467.448, 427.063 467, 429.128 467 C 430.597 467, 431 466.254, 431 463.534 C 431 461.628, 431.681 455.183, 432.514 449.211 L 434.029 438.354 426.657 422.427 C 416.868 401.277, 407.150 381.913, 405.237 379.750 C 403.824 378.151, 403.862 378, 405.679 378 C 407.650 378, 407.647 377.862, 405.350 362.750 C 404.075 354.363, 403.025 345.565, 403.016 343.199 L 403 338.898 406.344 341.449 C 411.658 345.502, 414.100 344.888, 420.191 337.972 C 423.111 334.657, 428.263 327.895, 431.639 322.945 L 437.779 313.947 440.421 318.455 C 443.339 323.435, 445.523 325, 449.553 325 C 452.456 325, 462.444 319.376, 465.460 316.044 C 467.647 313.627, 467.380 312.830, 460.336 300.757 C 456.005 293.334, 455.731 293.075, 453.715 294.487 C 451.846 295.796, 451.410 295.776, 449.779 294.300 C 448.050 292.736, 447.781 292.837, 445.070 296.070 C 441.129 300.772, 440.220 299.260, 444.068 294.404 C 451.206 285.397, 455.872 281.247, 459.658 280.536 C 470.968 278.415, 480.473 269.226, 489.995 251.213 L 493.319 244.925 497.518 245.555 C 500.681 246.029, 502.694 245.687, 505.676 244.165 C 510.964 241.467, 520.823 230.779, 524.499 223.760 L 527.467 218.090 529.726 220.212 C 531.273 221.666, 533.713 222.477, 537.469 222.789 C 542.199 223.181, 543.956 222.766, 550.227 219.779 C 568.267 211.183, 587.671 192.111, 600.199 170.659 L 604.203 163.803 608.384 164.430 C 613.982 165.270, 623.365 160.664, 628.924 154.349 C 631.252 151.704, 633.380 150.117, 634.047 150.529 C 638.382 153.208, 649.073 149.325, 659.226 141.383 C 663.988 137.659, 665.283 137.081, 666.911 137.952 C 667.987 138.528, 669.863 139, 671.079 139 C 674.196 139, 686.752 132.735, 691.398 128.861 C 694.881 125.956, 695.997 125.599, 701.898 125.500 C 707.551 125.404, 710.873 124.441, 725.013 118.799 C 744.754 110.921, 754.723 107.377, 755.324 108.024 C 755.568 108.286, 755.389 111.200, 754.926 114.500 C 754.464 117.800, 753.787 128.375, 753.423 138 C 751.826 180.190, 758.718 227.394, 771.408 261.178 C 773.231 266.030, 774.598 270, 774.447 270 C 774.295 270, 767.270 266.430, 758.836 262.066 C 730.498 247.405, 707.381 239.312, 684.649 236.092 C 675.393 234.782, 674.617 235.186, 675.421 240.900 C 678.095 259.895, 678.113 270, 675.473 270 C 673.644 270, 663.977 263.355, 660.806 259.919 C 657.806 256.668, 656.222 256.257, 655.359 258.508 C 653.343 263.761, 661.079 275.788, 676.599 291.526 C 691.946 307.089, 707.683 315.232, 722.623 315.341 C 729.836 315.393, 731.486 315.035, 737.365 312.141 C 744.506 308.626, 748.569 303.974, 751.026 296.500 C 752.517 291.964, 752.864 281.690, 751.752 275 C 750.823 269.413, 752.064 271.268, 754.907 279.718 C 757.454 287.285, 757.684 298.637, 755.425 305.266 C 752.190 314.759, 742.686 322.122, 731.728 323.624 C 721.290 325.055, 701.783 316.302, 687.400 303.735 L 682.554 299.500 684.980 303 C 694.942 317.371, 709.848 333.407, 728.430 349.743 L 740.361 360.231 740.108 370.398 C 739.792 383.124, 741.670 391.639, 747.097 402.069 C 751.935 411.369, 765.932 428.401, 767.472 426.862 C 767.704 426.629, 766.780 422.627, 765.419 417.969 C 764.057 413.311, 762.664 406.892, 762.324 403.704 L 761.706 397.909 764.603 399.197 C 766.196 399.906, 769.525 401.454, 772 402.638 C 774.475 403.822, 776.678 404.622, 776.897 404.416 C 777.115 404.209, 775.255 400.994, 772.764 397.270 C 770.273 393.547, 766.129 386.530, 763.554 381.677 L 758.874 372.855 768.187 380.588 C 780.187 390.552, 798.986 408.956, 804.359 416 C 815.307 430.353, 819.078 443.930, 817.046 461.684 C 815.640 473.973, 811.622 484.864, 804.725 495.086 C 798.292 504.620, 794.276 509.123, 786.712 515.284 C 777.942 522.427, 776.481 522.715, 767.318 519.107 C 756.017 514.657, 748.810 512.972, 737.500 512.136 C 719.549 510.808, 702.815 513.111, 691.500 518.467 C 687.331 520.440, 686.928 520.847, 689.074 520.917 C 694.925 521.106, 711.092 524.423, 719.500 527.160 C 742.618 534.683, 757.323 549.519, 761.466 569.500 C 763.154 577.638, 765.993 604.720, 766.015 612.890 C 766.024 615.976, 766.467 619.175, 767 620 C 767.753 621.165, 767.973 620.872, 767.985 618.692 C 768.021 611.970, 779.476 571.636, 787.722 549.193 L 792.243 536.886 805.872 526.057 C 843.420 496.222, 861.866 467.290, 867.491 429.407 C 871.304 403.724, 867.495 380.181, 855.520 355.425 C 841.888 327.244, 821.080 302.752, 794.550 283.660 C 789.077 279.722, 783.192 275.150, 781.472 273.500 C 773.797 266.137, 762.417 222.554, 758.494 185.500 C 756.409 165.802, 756.462 116.633, 758.579 106.250 C 758.832 105.013, 758.692 104.037, 758.269 104.082 C 757.846 104.127, 752.100 105.196, 745.500 106.457 M 729 114.011 C 727.625 114.480, 720.327 116.536, 712.782 118.579 C 700.241 121.977, 696.401 124, 702.494 124 C 704.852 124, 728.499 115.976, 731.785 114.061 C 733.846 112.859, 732.449 112.834, 729 114.011 M 688 126.085 C 685.525 127.122, 679.764 129.369, 675.198 131.078 C 666.972 134.157, 665.158 136.200, 670.119 136.796 C 672.875 137.128, 686.824 130.453, 691.500 126.566 C 695.034 123.628, 694.152 123.507, 688 126.085 M 649.010 141.560 C 642.690 144.520, 637.343 147.472, 637.127 148.120 C 636.397 150.308, 644.887 148.313, 650.307 145.022 C 656.183 141.455, 663.010 136.022, 661.500 136.116 C 660.950 136.150, 655.329 138.600, 649.010 141.560 M 619.279 156.370 C 610.036 161.512, 607.605 163.808, 612.750 162.538 C 616.213 161.682, 623.873 156.828, 626.982 153.519 C 628.284 152.134, 629.158 151.054, 628.924 151.120 C 628.691 151.186, 624.350 153.549, 619.279 156.370 M 578.432 181.315 C 568.494 188.017, 553.479 198.428, 545.066 204.452 L 529.768 215.404 532.440 217.702 C 543.406 227.135, 576.428 203.576, 596.150 172.250 C 597.276 170.463, 597.815 169.029, 597.348 169.065 C 596.882 169.100, 588.369 174.613, 578.432 181.315 M 510.500 231.154 C 503.900 236.646, 498.350 241.558, 498.167 242.070 C 497.504 243.920, 502.803 242.945, 506.297 240.573 C 511.431 237.089, 523.995 222.659, 522.870 221.538 C 522.667 221.335, 517.100 225.662, 510.500 231.154 M 472 265.157 C 463.228 273.640, 459.376 277.955, 461 277.479 C 468.173 275.377, 474.975 269.743, 481.437 260.551 C 490.017 248.346, 488.740 248.969, 472 265.157 M 699.557 255.223 C 697.580 258.044, 697.590 259.970, 699.597 262.835 C 701.863 266.070, 706.385 265.492, 706.801 261.914 C 707.208 258.409, 704.548 256.177, 701.919 257.819 C 699.441 259.366, 699.273 257.461, 701.655 254.829 C 702.565 253.823, 702.816 253, 702.212 253 C 701.608 253, 700.413 254, 699.557 255.223 M 728.500 302.019 C 725.750 303.006, 721.925 304.282, 720 304.854 C 716.760 305.818, 716.872 305.853, 721.500 305.333 C 726.495 304.771, 732.550 302.537, 733.575 300.878 C 733.874 300.395, 733.979 300.050, 733.809 300.112 C 733.639 300.173, 731.250 301.031, 728.500 302.019 M 427.805 306.851 C 421.913 315.859, 422.050 316.554, 428.798 311.898 C 434.538 307.937, 434.780 307.603, 433.728 305.116 C 431.930 300.869, 431.668 300.946, 427.805 306.851 M 843.325 324.200 C 852.159 335.696, 856.919 343.519, 863.903 358.028 C 870.492 371.713, 874.202 383.290, 876.049 395.926 L 877.254 404.162 879.990 395.831 C 881.495 391.249, 883.730 382.786, 884.957 377.025 C 888.574 360.047, 892.700 354.570, 899.105 358.245 C 902.967 360.462, 902.761 359.367, 897.960 352.177 C 887.074 335.876, 862.363 320.509, 840.723 316.584 L 836.947 315.899 843.325 324.200 M 763.310 318.246 C 783.509 332.239, 797.630 343.769, 808.592 355.216 C 826.155 373.558, 838.987 392.362, 846.659 411 C 851.575 422.943, 852.169 422.876, 848.428 410.802 C 844.638 398.568, 834.031 377.792, 826.321 367.500 C 817.422 355.620, 802.454 340.738, 792.405 333.778 C 787.953 330.695, 779.178 325.657, 772.905 322.582 C 766.632 319.508, 762.315 317.556, 763.310 318.246 M 387.575 438.030 C 385.512 446.539, 382.514 456.264, 380.912 459.643 C 378.894 463.901, 378 467.332, 378 470.827 C 378 475.566, 377.838 475.886, 375.284 476.184 C 372.890 476.463, 372.189 477.477, 369.354 484.764 C 365.052 495.825, 361.081 509.518, 360.325 515.903 L 359.708 521.111 362.604 520.418 C 364.197 520.036, 374.950 516.950, 386.500 513.559 L 407.500 507.394 407.361 504.447 C 407.284 502.826, 406.642 493.063, 405.935 482.750 C 404.924 468.026, 404.349 464, 403.258 464 C 402.145 464, 401.915 461.931, 402.106 453.631 L 402.344 443.262 397.836 435.381 C 395.357 431.047, 392.877 426.389, 392.326 425.030 C 391.470 422.918, 390.782 424.799, 387.575 438.030 M 808 427.278 C 808 432.377, 796.282 452.050, 783.801 467.903 C 780.595 471.975, 778.135 475.469, 778.334 475.667 C 778.533 475.866, 781.351 474.799, 784.598 473.296 C 788.806 471.348, 792.579 470.452, 797.741 470.173 C 804.894 469.787, 805.025 469.825, 808.484 473.284 L 811.986 476.786 813.545 471.643 C 815.760 464.335, 816.491 450.638, 815.093 442.614 C 813.069 430.989, 808 420.030, 808 427.278 M 622.428 429.965 C 620.715 430.659, 619.798 433.281, 617.117 445.152 C 614.506 456.720, 604.356 494.680, 601.517 503.500 C 601.132 504.695, 601.489 504.443, 602.403 502.874 C 604.621 499.069, 617.279 460.697, 621.331 445.492 C 623.236 438.347, 625.114 431.712, 625.504 430.750 C 626.276 428.846, 625.612 428.677, 622.428 429.965 M 862.518 464.250 C 857.891 475.825, 845.137 494.592, 833.688 506.674 C 826.957 513.777, 826.903 513.878, 829.188 515.081 C 832.192 516.664, 833.082 518.091, 832.410 520.250 C 831.371 523.587, 833.780 521.964, 840.623 514.714 C 849.232 505.593, 855.407 494.769, 860.112 480.549 C 863.463 470.422, 865.775 460, 864.670 460 C 864.421 460, 863.453 461.913, 862.518 464.250 M 552 500.475 C 537.231 504.656, 499.745 514.925, 466 524.035 C 451.425 527.970, 430.950 533.603, 420.500 536.554 C 340.330 559.188, 275.843 574.507, 228.799 582.093 C 217.413 583.929, 208.275 585.609, 208.493 585.826 C 209.077 586.410, 219.303 584.984, 268 577.528 C 374.543 561.214, 431.148 546.460, 543.500 505.721 C 568.452 496.673, 571.010 495.094, 552 500.475 M 520.500 521.911 C 499.587 529.538, 472.643 540.836, 475.047 540.970 C 477.940 541.130, 516.050 526.533, 532 519.155 C 541.905 514.573, 538.155 515.472, 520.500 521.911 M 827.186 545.750 C 820.287 549.939, 807.634 561.871, 802.005 569.497 C 792.709 582.091, 782.944 602.366, 773.587 628.500 C 771.028 635.650, 768.677 642.175, 768.363 643 C 768.015 643.915, 767.303 642.746, 766.536 640 C 760.824 619.561, 753.464 598.995, 747.747 587.500 C 744.485 580.940, 735.227 567.110, 731.179 562.750 C 726.598 557.816, 719 559.461, 719 565.387 C 719 566.223, 720.998 567.790, 723.442 568.871 C 726.645 570.288, 729.185 572.602, 732.551 577.168 C 739.191 586.175, 748.476 605.160, 750.322 613.503 L 750.985 616.500 749.243 614.024 C 743.774 606.253, 729.140 592.906, 718.180 585.692 C 702.589 575.430, 693.461 572.324, 686.894 575.044 C 682.987 576.662, 680.569 581.737, 681.961 585.398 C 683.090 588.367, 686.439 589.393, 699.772 590.856 C 705.660 591.502, 710.952 592.757, 714.272 594.294 C 722.852 598.267, 734.992 611.592, 742.414 625.183 C 745.432 630.711, 752 646.072, 752 647.604 C 752 647.907, 750.521 646.208, 748.713 643.828 C 744.979 638.911, 731.909 628.130, 723.670 623.169 C 715.847 618.460, 703.658 613.353, 694.408 610.910 C 684.434 608.275, 669.740 607.333, 663.308 608.918 C 659.001 609.978, 649.007 615.658, 649.002 617.047 C 649.001 617.348, 651.873 617.412, 655.385 617.188 C 672.616 616.091, 695.440 622.680, 710.724 633.163 C 716.649 637.227, 724.908 644.536, 722.500 643.585 C 710.200 638.726, 694.160 634.830, 674.500 631.928 C 664.391 630.436, 656.385 630.030, 638.500 630.104 C 610.239 630.221, 604.384 631.389, 627.500 632.298 C 674.959 634.164, 706.108 643.537, 726.357 662.043 L 731.706 666.932 754.103 664.518 C 791.011 660.539, 787.114 661.415, 795.056 655.321 C 809.094 644.551, 827.689 634.572, 845 628.520 C 857.037 624.311, 865.917 623.282, 876.860 624.827 C 885.527 626.051, 889 625.170, 889 621.747 C 889 618.175, 886.299 615.158, 882.084 614.023 C 872.435 611.424, 832.040 623.910, 806.074 637.517 L 797.500 642.009 804.102 635.653 C 816.171 624.034, 829.449 615.011, 853.500 602.083 C 861.750 597.648, 867.965 594.016, 867.312 594.010 C 864.663 593.988, 851.877 597.288, 841.965 600.552 C 831.797 603.901, 808.270 614.894, 799 620.628 L 794.501 623.411 796.412 620.456 C 800.519 614.106, 806.995 606.270, 812.181 601.378 C 816.210 597.577, 819.080 595.828, 823.305 594.600 C 828.117 593.201, 829 592.585, 829 590.627 C 829 585.997, 823.353 583.249, 818.739 585.635 C 812.927 588.640, 790.636 608.534, 785.711 615.111 C 784.727 616.425, 787.075 611.200, 790.929 603.500 C 798.835 587.703, 808.716 573.847, 815.756 568.680 C 820.636 565.100, 826.659 562.995, 838 560.906 C 849.637 558.764, 852.864 555.506, 849.601 549.196 C 845.305 540.888, 837.237 539.647, 827.186 545.750 M 206.500 611.659 C 154.898 615.825, 122.660 623.230, 92 637.960 C 84.662 641.486, 83.736 641.560, 109.877 636.526 C 167.048 625.518, 224.556 623.249, 286 629.578 C 309.143 631.962, 341.818 636.808, 363.990 641.143 C 382.645 644.791, 437.398 656.723, 446.077 659.032 C 472.589 666.085, 529.820 677.285, 563 681.913 C 628.526 691.054, 695.673 691.803, 747.006 683.965 C 796.098 676.469, 842.964 661.023, 884.250 638.732 C 896.915 631.894, 900.433 629.493, 893.250 632.590 C 871.569 641.935, 838.914 652.768, 814 658.880 C 798.186 662.760, 765.817 668.268, 742.500 671.047 C 719.379 673.803, 665.610 674.839, 638.092 673.059 C 579.923 669.297, 534.228 661.412, 446.500 640.001 C 372.333 621.900, 332.488 615.042, 284 612.033 C 269.117 611.110, 216.456 610.855, 206.500 611.659 M 939.814 642.048 C 936.686 644.219, 927.236 649.526, 918.814 653.841 C 869.738 678.985, 809.555 694.832, 739 701.190 C 719.659 702.933, 649.412 702.940, 630 701.201 C 574.409 696.222, 534.332 690.152, 457 675.001 C 387.687 661.421, 354.479 656.117, 305.500 650.802 C 289.050 649.017, 223.321 649.037, 208.500 650.832 C 171.335 655.333, 143.862 661.396, 117.067 671.011 C 104.485 675.526, 80.563 685.909, 81.238 686.563 C 81.382 686.702, 87.350 685.323, 94.500 683.498 C 108.501 679.925, 124.833 677.061, 145.500 674.554 C 185.073 669.754, 246.888 669.741, 299 674.522 C 324.535 676.864, 322.462 676.199, 327.192 683.567 C 329.443 687.073, 331.741 689.660, 332.297 689.316 C 332.854 688.972, 333.010 689.175, 332.644 689.766 C 332.279 690.358, 334.473 694.567, 337.521 699.120 C 340.568 703.673, 343.322 708.434, 343.639 709.699 C 343.957 710.965, 344.645 712, 345.167 712 C 345.690 712, 345.884 712.378, 345.599 712.840 C 345.313 713.302, 342.474 713.333, 339.290 712.908 C 309.863 708.986, 237.670 709.046, 204 713.020 C 191.303 714.519, 149.876 721.209, 150.350 721.684 C 150.577 721.911, 157.229 721.359, 165.132 720.457 C 184.710 718.222, 243.272 717.400, 272.830 718.944 C 297.018 720.208, 344.343 724.397, 347.250 725.531 C 348.212 725.907, 349 726.616, 349 727.107 C 349 727.598, 349.477 728, 350.059 728 C 350.641 728, 350.810 727.502, 350.434 726.893 C 349.966 726.135, 350.657 725.975, 352.625 726.385 C 354.206 726.715, 359.325 727.420, 364 727.953 C 373.043 728.983, 373.936 729.095, 392.450 731.544 C 404.223 733.101, 410.358 734.814, 405 735.049 C 403.625 735.109, 403.072 735.388, 403.771 735.669 C 404.470 735.951, 406.283 735.749, 407.798 735.220 C 410.956 734.119, 440.577 738.111, 438 739.290 C 437.175 739.668, 437.850 739.746, 439.500 739.465 C 441.150 739.184, 446.325 739.644, 451 740.488 C 455.675 741.332, 465.575 742.908, 473 743.992 C 480.425 745.076, 491.900 746.858, 498.500 747.953 C 547.663 756.107, 589.541 762.322, 591.310 761.725 C 591.965 761.505, 590.700 761.007, 588.500 760.619 C 586.300 760.231, 577.075 758.159, 568 756.016 C 551.009 752.002, 509.558 742.507, 491 738.377 C 485.225 737.092, 479.022 735.356, 477.216 734.520 C 475.410 733.684, 472.485 732.986, 470.716 732.970 C 468.038 732.944, 467.794 732.768, 469.258 731.915 C 470.225 731.352, 471.575 731.198, 472.258 731.572 C 472.941 731.946, 470.670 729.479, 467.212 726.090 C 463.754 722.702, 460.480 720.203, 459.937 720.539 C 459.395 720.874, 459.074 720.748, 459.225 720.259 C 459.640 718.916, 442.687 704.971, 441.262 705.483 C 440.581 705.728, 440.131 705.382, 440.262 704.714 C 440.393 704.046, 439.904 703.624, 439.176 703.775 C 438.447 703.926, 438.136 703.588, 438.485 703.025 C 439.064 702.088, 437.718 701.552, 435.676 701.906 C 435.222 701.985, 435.155 701.558, 435.526 700.957 C 435.908 700.339, 435.290 699.627, 434.101 699.316 C 432.945 699.014, 432 698.404, 432 697.961 C 432 696.740, 425.206 694.755, 423.865 695.583 C 423.100 696.056, 422.959 695.875, 423.460 695.065 C 424.670 693.108, 430.568 694.702, 435.832 698.408 C 441.102 702.119, 443.882 703.418, 445.850 703.091 C 446.593 702.967, 446.923 703.315, 446.584 703.864 C 445.419 705.748, 447.944 706.080, 451.086 704.456 C 454.880 702.494, 457.148 703.811, 454.962 706.708 C 453.677 708.410, 453.704 708.414, 455.488 706.781 C 457.325 705.100, 457.324 705.015, 455.433 702.913 C 454.370 701.731, 452.600 700.396, 451.500 699.945 C 447.291 698.222, 453.334 699.026, 474.349 702.982 C 523.662 712.265, 574.516 719.641, 616.308 723.571 C 638.807 725.687, 704.494 726.610, 724.689 725.094 C 808.495 718.805, 877.626 694.880, 926.500 655.252 C 936.991 646.745, 946.850 638.068, 946 638.089 C 945.725 638.096, 942.941 639.878, 939.814 642.048 M 335.750 680.662 C 336.438 680.940, 337.563 680.940, 338.250 680.662 C 338.938 680.385, 338.375 680.158, 337 680.158 C 335.625 680.158, 335.063 680.385, 335.750 680.662 M 349.250 682.689 C 350.212 682.941, 351.788 682.941, 352.750 682.689 C 353.712 682.438, 352.925 682.232, 351 682.232 C 349.075 682.232, 348.288 682.438, 349.250 682.689 M 356.813 683.683 C 357.534 683.972, 358.397 683.936, 358.729 683.604 C 359.061 683.272, 358.471 683.036, 357.417 683.079 C 356.252 683.127, 356.015 683.364, 356.813 683.683 M 363.500 685 C 363.840 685.550, 364.793 686, 365.618 686 C 366.443 686, 366.840 685.550, 366.500 685 C 366.160 684.450, 365.207 684, 364.382 684 C 363.557 684, 363.160 684.450, 363.500 685 M 371 685.383 C 371 685.594, 372.111 685.979, 373.470 686.239 C 374.828 686.499, 375.702 686.326, 375.411 685.856 C 374.899 685.027, 371 684.610, 371 685.383 M 334.564 689.293 C 334.940 690.279, 335.499 690.834, 335.807 690.526 C 336.115 690.219, 335.808 689.412, 335.124 688.733 C 334.136 687.753, 334.022 687.868, 334.564 689.293 M 393.813 689.683 C 394.534 689.972, 395.397 689.936, 395.729 689.604 C 396.061 689.272, 395.471 689.036, 394.417 689.079 C 393.252 689.127, 393.015 689.364, 393.813 689.683 M 398.750 690.662 C 399.438 690.940, 400.563 690.940, 401.250 690.662 C 401.938 690.385, 401.375 690.158, 400 690.158 C 398.625 690.158, 398.063 690.385, 398.750 690.662 M 405.269 691.693 C 406.242 691.947, 407.592 691.930, 408.269 691.656 C 408.946 691.382, 408.150 691.175, 406.500 691.195 C 404.850 691.215, 404.296 691.439, 405.269 691.693 M 410.750 692.662 C 411.438 692.940, 412.563 692.940, 413.250 692.662 C 413.938 692.385, 413.375 692.158, 412 692.158 C 410.625 692.158, 410.063 692.385, 410.750 692.662 M 418.500 694 C 418.840 694.550, 419.541 695, 420.059 695 C 420.577 695, 421 694.550, 421 694 C 421 693.450, 420.298 693, 419.441 693 C 418.584 693, 418.160 693.450, 418.500 694 M 340.564 698.293 C 340.940 699.279, 341.499 699.834, 341.807 699.526 C 342.115 699.219, 341.808 698.412, 341.124 697.733 C 340.136 696.753, 340.022 696.868, 340.564 698.293 M 447.732 702.915 C 447.097 705.346, 447.126 705.356, 450.422 703.854 C 451.805 703.223, 452.670 702.275, 452.344 701.747 C 452.001 701.192, 451.381 701.359, 450.875 702.143 C 450.147 703.271, 449.855 703.275, 449.139 702.165 C 448.481 701.147, 448.149 701.324, 447.732 702.915 M 450.872 706.750 C 449.603 708.369, 449.650 708.390, 451.500 707.033 C 452.600 706.226, 453.688 705.439, 453.917 705.283 C 454.146 705.127, 453.863 705, 453.289 705 C 452.715 705, 451.627 705.788, 450.872 706.750 M 441.074 707.411 C 440.260 708.392, 440.227 709.022, 440.968 709.480 C 441.553 709.842, 441.833 710.461, 441.590 710.855 C 441.346 711.249, 442.033 711.571, 443.115 711.571 C 444.950 711.571, 444.929 711.452, 442.792 709.808 C 440.747 708.235, 440.954 707.495, 443.324 707.906 C 443.778 707.985, 443.864 707.588, 443.515 707.025 C 442.692 705.692, 442.472 705.727, 441.074 707.411 M 456.872 708.750 C 455.629 710.336, 455.664 710.371, 457.250 709.128 C 458.916 707.821, 459.445 707, 458.622 707 C 458.415 707, 457.627 707.788, 456.872 708.750 M 348.473 713.044 C 348.148 713.570, 348.809 714, 349.941 714 C 352.356 714, 352.599 713.444, 350.532 712.651 C 349.725 712.341, 348.798 712.518, 348.473 713.044 M 353.813 713.683 C 354.534 713.972, 355.397 713.936, 355.729 713.604 C 356.061 713.272, 355.471 713.036, 354.417 713.079 C 353.252 713.127, 353.015 713.364, 353.813 713.683 M 359.750 714.706 C 360.988 714.944, 363.012 714.944, 364.250 714.706 C 365.488 714.467, 364.475 714.272, 362 714.272 C 359.525 714.272, 358.512 714.467, 359.750 714.706 M 371.813 715.683 C 372.534 715.972, 373.397 715.936, 373.729 715.604 C 374.061 715.272, 373.471 715.036, 372.417 715.079 C 371.252 715.127, 371.015 715.364, 371.813 715.683 M 379 716.368 C 379 717.093, 384.039 717.745, 384.455 717.073 C 384.679 716.711, 383.543 716.314, 381.931 716.192 C 380.319 716.069, 379 716.148, 379 716.368 M 386.750 717.662 C 387.438 717.940, 388.563 717.940, 389.250 717.662 C 389.938 717.385, 389.375 717.158, 388 717.158 C 386.625 717.158, 386.063 717.385, 386.750 717.662 M 391.507 717.989 C 391.157 718.555, 391.558 718.723, 392.448 718.382 C 394.180 717.717, 394.497 717, 393.059 717 C 392.541 717, 391.843 717.445, 391.507 717.989 M 448.694 717.639 C 447.947 718.387, 448.766 720, 449.892 720 C 450.318 720, 450.667 719.325, 450.667 718.500 C 450.667 716.933, 449.785 716.548, 448.694 717.639 M 453 718 C 452.099 718.582, 451.975 718.975, 452.691 718.985 C 453.346 718.993, 454.160 718.550, 454.500 718 C 455.267 716.758, 454.921 716.758, 453 718 M 396.750 719.662 C 397.438 719.940, 398.563 719.940, 399.250 719.662 C 399.938 719.385, 399.375 719.158, 398 719.158 C 396.625 719.158, 396.063 719.385, 396.750 719.662 M 408.750 721.662 C 409.438 721.940, 410.563 721.940, 411.250 721.662 C 411.938 721.385, 411.375 721.158, 410 721.158 C 408.625 721.158, 408.063 721.385, 408.750 721.662 M 426.813 721.683 C 427.534 721.972, 428.397 721.936, 428.729 721.604 C 429.061 721.272, 428.471 721.036, 427.417 721.079 C 426.252 721.127, 426.015 721.364, 426.813 721.683 M 416.500 722.922 C 424.003 724.446, 430.442 725.041, 429.460 724.120 C 428.932 723.625, 424.900 722.971, 420.500 722.666 C 415.143 722.294, 413.821 722.379, 416.500 722.922 M 460.500 724 C 461.495 725.100, 462.760 726, 463.310 726 C 463.860 726, 463.495 725.100, 462.500 724 C 461.505 722.900, 460.240 722, 459.690 722 C 459.140 722, 459.505 722.900, 460.500 724 M 439.437 724.898 C 439.753 725.410, 439.447 726.080, 438.756 726.385 C 437.930 726.751, 438.013 726.885, 439 726.775 C 439.825 726.683, 441.400 726.882, 442.500 727.217 C 443.600 727.551, 446.300 728.082, 448.500 728.396 C 451.580 728.836, 451.982 728.749, 450.250 728.016 C 449.012 727.493, 447.993 726.487, 447.985 725.782 C 447.974 724.866, 447.705 724.917, 447.044 725.963 C 446.240 727.234, 445.640 727.199, 442.490 725.696 C 440.494 724.745, 439.120 724.385, 439.437 724.898 M 433.269 725.693 C 434.242 725.947, 435.592 725.930, 436.269 725.656 C 436.946 725.382, 436.150 725.175, 434.500 725.195 C 432.850 725.215, 432.296 725.439, 433.269 725.693 M 517.083 725.394 C 517.816 726.088, 546.028 733.681, 560 736.946 C 567.425 738.681, 577.100 740.948, 581.500 741.984 C 585.900 743.020, 598.275 745.707, 609 747.956 C 619.725 750.205, 629.850 752.439, 631.500 752.920 C 634.363 753.756, 634.294 753.805, 630 753.988 C 625.714 754.171, 625.643 754.222, 628.500 755.048 C 638.006 757.796, 710.258 763.726, 739 764.116 C 746.425 764.217, 751.184 764.495, 749.576 764.733 C 747.375 765.059, 747.004 765.390, 748.076 766.068 C 749.207 766.784, 749.089 766.996, 747.500 767.100 C 746.400 767.171, 747.218 767.562, 749.317 767.968 C 751.416 768.375, 755.016 768.342, 757.317 767.897 C 759.618 767.452, 763.750 767.036, 766.500 766.973 C 769.381 766.908, 770.774 766.571, 769.787 766.180 C 768.845 765.806, 770.870 765.490, 774.287 765.478 C 777.704 765.466, 781.400 765.065, 782.500 764.586 C 783.600 764.108, 787.013 763.546, 790.085 763.337 C 804.001 762.391, 850.965 750.686, 873.500 742.548 C 885.532 738.203, 901.149 731.815, 900.740 731.406 C 900.578 731.244, 897.082 731.999, 892.973 733.083 C 867.281 739.861, 821.656 746.735, 787.595 748.961 C 778.847 749.532, 761.972 749.936, 750.095 749.857 C 731.662 749.736, 729.891 749.602, 738 748.940 C 757.127 747.381, 777.873 743.151, 793.500 737.624 C 801.714 734.720, 801.070 734.477, 790.360 736.442 C 759.367 742.128, 701.227 745.142, 662.181 743.087 C 627.864 741.281, 555.844 732.634, 527.843 726.958 C 517.888 724.940, 516.370 724.719, 517.083 725.394 M 455.573 727.521 C 454.513 728.323, 453.838 729.120, 454.073 729.291 C 455.012 729.976, 466.395 731.939, 466.841 731.492 C 467.104 731.229, 465.876 730.725, 464.113 730.373 C 460.955 729.741, 460.941 729.714, 463.203 728.579 C 465.135 727.609, 465.790 727.749, 467.326 729.463 C 468.331 730.583, 468.823 730.825, 468.420 730 C 466.682 726.437, 466.003 726.152, 462.920 727.690 C 459.634 729.329, 455.304 728.684, 458.028 726.962 C 458.838 726.450, 459.050 726.038, 458.500 726.047 C 457.950 726.056, 456.633 726.720, 455.573 727.521 M 351.291 730.260 C 350.517 731.960, 350.720 733.880, 352.111 738.010 C 353.844 743.157, 353.896 742.268, 352.338 734.100 C 351.833 731.452, 352.098 730.402, 353.536 729.350 C 355.005 728.276, 355.070 728, 353.852 728 C 353.010 728, 351.858 729.017, 351.291 730.260 M 375 733 C 373.910 733.704, 373.858 733.974, 374.809 733.985 C 375.529 733.993, 375.843 734.445, 375.507 734.989 C 375.150 735.566, 375.576 735.716, 376.532 735.349 C 377.758 734.879, 377.856 734.529, 376.922 733.952 C 376.080 733.431, 376.458 733.034, 378.088 732.727 C 379.981 732.370, 380.070 732.246, 378.500 732.151 C 377.400 732.085, 375.825 732.467, 375 733 M 399.813 734.683 C 400.534 734.972, 401.397 734.936, 401.729 734.604 C 402.061 734.272, 401.471 734.036, 400.417 734.079 C 399.252 734.127, 399.015 734.364, 399.813 734.683 M 439.078 740.931 C 438.030 741.594, 438.771 742.130, 441.903 742.974 C 444.238 743.603, 446.678 743.914, 447.324 743.665 C 447.971 743.417, 446.491 742.868, 444.036 742.445 C 440.518 741.839, 439.989 741.513, 441.536 740.908 C 442.818 740.407, 442.979 740.121, 442 740.086 C 441.175 740.055, 439.860 740.436, 439.078 740.931 M 358.079 742.583 C 358.127 743.748, 358.364 743.985, 358.683 743.188 C 358.972 742.466, 358.936 741.603, 358.604 741.271 C 358.272 740.939, 358.036 741.529, 358.079 742.583 M 354.602 747.492 C 355.267 752.077, 355.700 753, 357.181 753 C 357.916 753, 357.926 752.614, 357.213 751.750 C 356.645 751.063, 355.695 748.925, 355.102 747 L 354.023 743.500 354.602 747.492 M 436.584 745.359 C 436.931 746.261, 438.178 746.964, 439.357 746.921 C 440.820 746.867, 441.024 746.666, 440 746.287 C 439.175 745.981, 437.927 745.278, 437.227 744.724 C 436.275 743.971, 436.113 744.131, 436.584 745.359 M 467.813 745.683 C 468.534 745.972, 469.397 745.936, 469.729 745.604 C 470.061 745.272, 469.471 745.036, 468.417 745.079 C 467.252 745.127, 467.015 745.364, 467.813 745.683 M 440.894 748.087 C 440.127 748.572, 439.893 748.976, 440.372 748.985 C 440.852 748.993, 440.755 749.591, 440.155 750.313 C 439.285 751.361, 439.931 751.629, 443.366 751.643 C 446.222 751.655, 447.667 751.227, 447.667 750.370 C 447.667 748.641, 442.676 746.958, 440.894 748.087 M 366.500 751 C 366.160 751.550, 366.359 752, 366.941 752 C 367.523 752, 368 751.550, 368 751 C 368 750.450, 367.802 750, 367.559 750 C 367.316 750, 366.840 750.450, 366.500 751 M 452.482 752.421 C 454.672 753.746, 456.900 754.562, 457.432 754.233 C 457.964 753.904, 456.622 752.851, 454.450 751.892 C 448.769 749.384, 447.866 749.627, 452.482 752.421 M 231 752.148 C 211.398 753.501, 174.209 758.542, 175.358 759.691 C 175.611 759.944, 181.146 759.582, 187.659 758.886 C 205.460 756.985, 265.558 757.251, 291.750 759.347 C 320.045 761.612, 342.178 764.364, 361 767.958 C 381.009 771.780, 410.877 777.415, 428 780.600 C 435.425 781.981, 447.800 784.433, 455.500 786.048 C 492.471 793.802, 536.707 801.878, 561.500 805.399 C 638.142 816.285, 731.436 819.512, 796 813.511 C 813.986 811.839, 841.201 808.157, 842 807.288 C 842.275 806.989, 840.475 807.016, 838 807.349 C 798.675 812.642, 732.591 811.252, 672 803.856 C 641.848 800.176, 562.112 786.032, 537.672 780.028 C 531.166 778.430, 525.091 777.363, 524.172 777.656 C 522.932 778.051, 522.836 777.947, 523.802 777.253 C 524.715 776.597, 521.719 775.183, 513.802 772.531 C 507.586 770.449, 500.925 768.381, 499 767.935 C 495.808 767.195, 495.671 767.250, 497.441 768.562 C 498.509 769.353, 500.084 770.033, 500.941 770.074 C 504.367 770.238, 524.068 776.813, 521.500 776.936 C 520.950 776.962, 510.375 775.178, 498 772.971 C 429.963 760.835, 400.239 756.732, 360.500 753.992 C 351.700 753.386, 338.650 752.480, 331.500 751.980 C 315.488 750.860, 248.032 750.973, 231 752.148 M 369.500 753 C 368.050 753.623, 369.013 753.875, 373 753.914 C 376.900 753.953, 378.064 753.687, 377 753 C 375.193 751.832, 372.217 751.832, 369.500 753 M 384.813 752.683 C 385.534 752.972, 386.397 752.936, 386.729 752.604 C 387.061 752.272, 386.471 752.036, 385.417 752.079 C 384.252 752.127, 384.015 752.364, 384.813 752.683 M 403.813 752.683 C 404.534 752.972, 405.397 752.936, 405.729 752.604 C 406.061 752.272, 405.471 752.036, 404.417 752.079 C 403.252 752.127, 403.015 752.364, 403.813 752.683 M 415 753 C 414.175 753.533, 413.950 753.969, 414.500 753.969 C 415.050 753.969, 416.175 753.533, 417 753 C 417.825 752.467, 418.050 752.031, 417.500 752.031 C 416.950 752.031, 415.825 752.467, 415 753 M 390.250 753.689 C 391.212 753.941, 392.788 753.941, 393.750 753.689 C 394.712 753.438, 393.925 753.232, 392 753.232 C 390.075 753.232, 389.288 753.438, 390.250 753.689 M 383.750 754.662 C 384.438 754.940, 385.563 754.940, 386.250 754.662 C 386.938 754.385, 386.375 754.158, 385 754.158 C 383.625 754.158, 383.063 754.385, 383.750 754.662 M 400.750 754.662 C 401.438 754.940, 402.563 754.940, 403.250 754.662 C 403.938 754.385, 403.375 754.158, 402 754.158 C 400.625 754.158, 400.063 754.385, 400.750 754.662 M 406 754.893 C 406 755.384, 406.600 756.016, 407.333 756.298 C 408.067 756.579, 408.667 756.177, 408.667 755.405 C 408.667 754.632, 408.067 754, 407.333 754 C 406.600 754, 406 754.402, 406 754.893 M 459 755 C 459 755.550, 458.250 756, 457.333 756 C 456.417 756, 455.914 756.247, 456.215 756.549 C 457.104 757.437, 462.039 755.872, 461.434 754.893 C 460.687 753.685, 459 753.759, 459 755 M 635.813 754.683 C 636.534 754.972, 637.397 754.936, 637.729 754.604 C 638.061 754.272, 637.471 754.036, 636.417 754.079 C 635.252 754.127, 635.015 754.364, 635.813 754.683 M 390.813 755.683 C 391.534 755.972, 392.397 755.936, 392.729 755.604 C 393.061 755.272, 392.471 755.036, 391.417 755.079 C 390.252 755.127, 390.015 755.364, 390.813 755.683 M 413.813 755.683 C 414.534 755.972, 415.397 755.936, 415.729 755.604 C 416.061 755.272, 415.471 755.036, 414.417 755.079 C 413.252 755.127, 413.015 755.364, 413.813 755.683 M 400.813 756.683 C 401.534 756.972, 402.397 756.936, 402.729 756.604 C 403.061 756.272, 402.471 756.036, 401.417 756.079 C 400.252 756.127, 400.015 756.364, 400.813 756.683 M 463.566 757.107 C 464.032 757.860, 463.491 757.999, 461.875 757.542 C 460.077 757.032, 459.862 757.118, 460.992 757.893 C 461.812 758.456, 463.612 758.657, 464.992 758.340 C 467.445 757.775, 467.456 757.798, 465.500 759.387 C 463.578 760.948, 463.609 760.973, 466.296 760.013 C 468.471 759.236, 470.358 759.475, 474.796 761.090 C 483.477 764.248, 487.002 765.175, 488.310 764.642 C 488.964 764.376, 488.717 764.122, 487.759 764.079 C 486.802 764.036, 481.285 762.200, 475.500 760 C 464.407 755.782, 462.455 755.308, 463.566 757.107 M 441.813 760.683 C 442.534 760.972, 443.397 760.936, 443.729 760.604 C 444.061 760.272, 443.471 760.036, 442.417 760.079 C 441.252 760.127, 441.015 760.364, 441.813 760.683 M 452.500 761.078 C 453.925 761.730, 453.206 761.853, 450 761.506 L 445.500 761.019 449 762.379 C 451.098 763.194, 452.950 763.384, 453.623 762.852 C 454.241 762.364, 455.366 762.125, 456.123 762.319 C 456.880 762.513, 457.160 762.483, 456.744 762.251 C 456.328 762.019, 456.171 761.530, 456.396 761.165 C 456.621 760.799, 455.386 760.424, 453.653 760.331 C 451.016 760.190, 450.827 760.312, 452.500 761.078 M 462.500 763 C 462.840 763.550, 463.316 764, 463.559 764 C 463.802 764, 464 763.550, 464 763 C 464 762.450, 463.523 762, 462.941 762 C 462.359 762, 462.160 762.450, 462.500 763 M 465.813 762.683 C 466.534 762.972, 467.397 762.936, 467.729 762.604 C 468.061 762.272, 467.471 762.036, 466.417 762.079 C 465.252 762.127, 465.015 762.364, 465.813 762.683 M 593.813 762.683 C 594.534 762.972, 595.397 762.936, 595.729 762.604 C 596.061 762.272, 595.471 762.036, 594.417 762.079 C 593.252 762.127, 593.015 762.364, 593.813 762.683 M 466 765 C 466.825 765.533, 467.950 765.969, 468.500 765.969 C 469.050 765.969, 468.825 765.533, 468 765 C 467.175 764.467, 466.050 764.031, 465.500 764.031 C 464.950 764.031, 465.175 764.467, 466 765 M 759.818 765.218 C 760.351 765.751, 761.623 766.011, 762.644 765.794 C 764.019 765.503, 763.767 765.251, 761.674 764.825 C 759.849 764.452, 759.192 764.592, 759.818 765.218 M 491 766 C 491.825 766.533, 493.175 766.945, 494 766.914 C 494.989 766.878, 494.819 766.567, 493.500 766 C 490.751 764.819, 489.172 764.819, 491 766 M 740 767 C 741.957 768.264, 744 768.264, 744 767 C 744 766.450, 742.763 766.007, 741.250 766.015 C 739.107 766.027, 738.831 766.245, 740 767 M 726.500 770 C 729.249 771.181, 730.828 771.181, 729 770 C 728.175 769.467, 726.825 769.055, 726 769.086 C 725.011 769.122, 725.181 769.433, 726.500 770 M 733.813 769.683 C 734.534 769.972, 735.397 769.936, 735.729 769.604 C 736.061 769.272, 735.471 769.036, 734.417 769.079 C 733.252 769.127, 733.015 769.364, 733.813 769.683 M 677.813 770.683 C 678.534 770.972, 679.397 770.936, 679.729 770.604 C 680.061 770.272, 679.471 770.036, 678.417 770.079 C 677.252 770.127, 677.015 770.364, 677.813 770.683 M 236.500 797.545 C 234.850 797.745, 228.550 798.255, 222.500 798.679 C 212.516 799.378, 214.086 799.511, 239.500 800.112 C 254.900 800.477, 275.825 801.529, 286 802.451 C 323.774 805.874, 376.436 813.053, 378.450 815.056 C 378.973 815.575, 380.576 816, 382.014 816 C 385.008 816, 419.748 822.574, 440.500 827.068 C 602.123 862.066, 642.413 868.497, 715.376 870.942 C 743.296 871.878, 793.913 871.234, 790.436 869.988 C 789.371 869.606, 779.500 869.001, 768.500 868.643 C 750.038 868.042, 733.095 866.728, 709 864.027 C 678.553 860.615, 611.521 847.576, 565.500 836.114 C 548.966 831.996, 493.413 819.691, 477 816.511 C 442.361 809.800, 391.425 803.019, 348.500 799.405 C 332.018 798.017, 244.590 796.565, 236.500 797.545 M 467.269 848.693 C 468.242 848.947, 469.592 848.930, 470.269 848.656 C 470.946 848.382, 470.150 848.175, 468.500 848.195 C 466.850 848.215, 466.296 848.439, 467.269 848.693 M 480.813 850.683 C 481.534 850.972, 482.397 850.936, 482.729 850.604 C 483.061 850.272, 482.471 850.036, 481.417 850.079 C 480.252 850.127, 480.015 850.364, 480.813 850.683 M 257.500 857.438 C 258.050 857.673, 265.250 858.596, 273.500 859.488 C 295.645 861.884, 352.386 871.705, 403.500 881.990 C 428.250 886.971, 457.500 892.593, 468.500 894.485 C 493.203 898.734, 558.820 908.227, 560.231 907.756 C 560.801 907.566, 552.094 905.497, 540.883 903.157 C 529.673 900.817, 516.225 897.992, 511 896.878 C 403.273 873.917, 346.041 863.752, 301 859.581 C 285.188 858.117, 255.690 856.663, 257.500 857.438 M 402.813 868.683 C 403.534 868.972, 404.397 868.936, 404.729 868.604 C 405.061 868.272, 404.471 868.036, 403.417 868.079 C 402.252 868.127, 402.015 868.364, 402.813 868.683 M 406.083 870.359 C 406.313 870.557, 407.850 871.021, 409.500 871.390 C 411.691 871.880, 412.095 871.787, 411 871.046 C 409.650 870.132, 405.080 869.494, 406.083 870.359 M 414.500 873 C 415.600 873.473, 417.400 873.846, 418.500 873.830 C 420.108 873.806, 420.010 873.644, 418 873 C 414.581 871.905, 411.952 871.905, 414.500 873 M 437.813 875.683 C 438.534 875.972, 439.397 875.936, 439.729 875.604 C 440.061 875.272, 439.471 875.036, 438.417 875.079 C 437.252 875.127, 437.015 875.364, 437.813 875.683" stroke="none" fill="black" fill-rule="evenodd"/>
</svg>